# xmcd CD database file
#
# Track frame offsets:
#	150
#	20840
#	46852
#	65557
#	80745
#	104505
#	120890
#	138780
#	156062
#
# Disc length: 2498 seconds
#
# Revision: 2
# Processed by: cddbd v1.5.1PL2 Copyright (c) Steve Scherf et al.
# Submitted via: CDex 1.60beta1
#
DISCID=7009c009
DTITLE=Dio - The Last In Line
DYEAR=1984
DGENRE=Hard Rock
TTITLE0=We Rock
TTITLE1=The Last In Line
TTITLE2=Breathless
TTITLE3=I Speed At Night
TTITLE4=One Night In The City
TTITLE5=Evil Eyes
TTITLE6=Mystery
TTITLE7=Eat Your Heart Out
TTITLE8=Egypt (The Chains Are On)
EXTD=YEAR: 1984
EXTT0=
EXTT1=
EXTT2=
EXTT3=
EXTT4=
EXTT5=
EXTT6=
EXTT7=
EXTT8=
PLAYORDER=
